<svg xmlns="http://www.w3.org/2000/svg" viewBox="-80 -80 160 160"><defs><filter id="s" x="-30%" y="-30%" width="160%" height="160%"><feDropShadow dx="0" dy="4" stdDeviation="3" flood-color="#2a0a18" flood-opacity=".3"/></filter></defs><g fill="#fff" stroke="#fff" stroke-width="22" stroke-linejoin="round" filter="url(#s)"><ellipse cx="0" cy="-34" rx="22" ry="30" transform="rotate(0)"/><ellipse cx="0" cy="-34" rx="22" ry="30" transform="rotate(72)"/><ellipse cx="0" cy="-34" rx="22" ry="30" transform="rotate(144)"/><ellipse cx="0" cy="-34" rx="22" ry="30" transform="rotate(216)"/><ellipse cx="0" cy="-34" rx="22" ry="30" transform="rotate(288)"/></g><g fill="#ffd23f" stroke="#1d0b12" stroke-width="5"><ellipse cx="0" cy="-34" rx="22" ry="30" transform="rotate(0)"/><ellipse cx="0" cy="-34" rx="22" ry="30" transform="rotate(72)"/><ellipse cx="0" cy="-34" rx="22" ry="30" transform="rotate(144)"/><ellipse cx="0" cy="-34" rx="22" ry="30" transform="rotate(216)"/><ellipse cx="0" cy="-34" rx="22" ry="30" transform="rotate(288)"/></g><g fill="#ffd23f"><ellipse cx="0" cy="-34" rx="22" ry="30" transform="rotate(0)"/><ellipse cx="0" cy="-34" rx="22" ry="30" transform="rotate(72)"/><ellipse cx="0" cy="-34" rx="22" ry="30" transform="rotate(144)"/><ellipse cx="0" cy="-34" rx="22" ry="30" transform="rotate(216)"/><ellipse cx="0" cy="-34" rx="22" ry="30" transform="rotate(288)"/></g><circle r="20" fill="#e8402f" stroke="#1d0b12" stroke-width="5"/><circle cx="-6" cy="-7" r="6" fill="#fff" opacity=".55"/><path d="M-12-52a10 14 0 0 1 10-8" stroke="#fff" stroke-width="5" stroke-linecap="round" fill="none" opacity=".7"/></svg>